<?xml version="1.0" encoding="utf-8"?>
<!-- Generator: Adobe Illustrator 19.1.0, SVG Export Plug-In . SVG Version: 6.00 Build 0)  -->
<svg version="1.1" id="Layer_1" xmlns="http://www.w3.org/2000/svg" xmlns:xlink="http://www.w3.org/1999/xlink" x="0px" y="0px"
	 width="250px" height="50px" viewBox="0 0 250 50" style="enable-background:new 0 0 250 50;" xml:space="preserve">
<style type="text/css">
	.st0{fill-rule:evenodd;clip-rule:evenodd;fill:#FFFFFF;}
	.st1{fill-rule:evenodd;clip-rule:evenodd;fill:none;stroke:#8AC4F5;stroke-miterlimit:10;}
	.st2{fill-rule:evenodd;clip-rule:evenodd;fill:#C1E2F4;}
	.st3{fill-rule:evenodd;clip-rule:evenodd;fill:#1EA29B;}
	.st4{fill-rule:evenodd;clip-rule:evenodd;fill:#8AC4F5;}
	.st5{fill-rule:evenodd;clip-rule:evenodd;fill:#86E2D5;}
	.st6{fill-rule:evenodd;clip-rule:evenodd;fill:#2DCC70;}
	.st7{fill:#555555;}
	.st8{fill:#1EA29B;}
	.st9{fill:none;stroke:#DADADA;stroke-miterlimit:10;}
</style>
<g>
	<g>
		<circle class="st0" cx="36.2" cy="25" r="19"/>
		<g>
			<path class="st1" d="M27.5,33.6c0-2.9-1.3-10.5,1.4-11.5c3-1,6.1,10.3,8.9,8.9c3.5-1.7-5-13.9-1.5-15.6c2.6-1.3,8.8,4.9,8.5,7.8
				C44.4,28.3,27.2,34,27.2,34"/>
			<circle class="st2" cx="27.5" cy="33.2" r="3"/>
			<circle class="st3" cx="36.4" cy="15.4" r="3"/>
			<circle class="st4" cx="28.9" cy="22.1" r="3"/>
			<circle class="st5" cx="37.9" cy="31" r="3"/>
			<circle class="st6" cx="44.9" cy="23.2" r="3"/>
		</g>
	</g>
	<g>
		<g>
			<g>
				<g>
					<path class="st7" d="M67.7,16.4h4.9c2.2,0,3.8,0.4,4.9,1.1s1.5,1.8,1.5,3.3c0,1-0.3,1.8-0.9,2.5s-1.6,1.1-2.8,1.3v0.1
						c1.4,0.2,2.5,0.6,3.1,1.3c0.7,0.7,1,1.6,1,2.8c0,1.6-0.5,2.8-1.6,3.6c-1.1,0.9-2.6,1.3-4.6,1.3h-5.5V16.4z M69,24h3.9
						c1.7,0,2.9-0.3,3.7-0.8c0.8-0.5,1.1-1.4,1.1-2.5s-0.4-2-1.3-2.5s-2.1-0.8-3.8-0.8H69V24z M69,25.1v7.4h4.2c3.3,0,5-1.3,5-3.9
						c0-2.4-1.7-3.5-5.2-3.5H69z"/>
					<path class="st7" d="M83.2,17.3c0-0.8,0.3-1.1,0.8-1.1c0.3,0,0.4,0.1,0.6,0.3c0.1,0.2,0.2,0.5,0.2,0.8c0,0.4-0.1,0.6-0.2,0.8
						c-0.1,0.2-0.3,0.3-0.6,0.3C83.4,18.4,83.2,18,83.2,17.3z M84.5,33.5h-1.2V20.8h1.2V33.5z"/>
					<path class="st7" d="M100.2,27.2c0,2.1-0.5,3.7-1.6,4.9c-1,1.2-2.5,1.8-4.3,1.8c-1.2,0-2.2-0.3-3.1-0.8c-0.9-0.5-1.6-1.3-2-2.3
						c-0.5-1-0.7-2.2-0.7-3.5c0-2.1,0.5-3.7,1.6-4.9c1-1.2,2.5-1.7,4.3-1.7c1.8,0,3.2,0.6,4.3,1.8C99.7,23.5,100.2,25.1,100.2,27.2z
						 M89.7,27.2c0,1.8,0.4,3.1,1.2,4.1c0.8,1,1.9,1.5,3.4,1.5c1.5,0,2.6-0.5,3.4-1.5c0.8-1,1.2-2.3,1.2-4.1c0-1.8-0.4-3.1-1.2-4.1
						c-0.8-1-1.9-1.5-3.4-1.5c-1.5,0-2.6,0.5-3.4,1.4C90.1,24,89.7,25.4,89.7,27.2z"/>
					<path class="st8" d="M112,33.5l-5.2-14.3h-0.1c0.1,2.1,0.2,4.1,0.2,6v8.3h-2.6V16.4h4.1l5,13.6h0.1l5.1-13.6h4.1v17.1h-2.8
						v-8.5c0-0.9,0-2,0.1-3.3c0-1.4,0.1-2.2,0.1-2.5h-0.1l-5.4,14.3H112z"/>
					<path class="st8" d="M133.1,33.8c-2.1,0-3.7-0.6-4.9-1.8c-1.2-1.2-1.8-2.8-1.8-4.9c0-2.1,0.5-3.8,1.6-5
						c1.1-1.2,2.6-1.8,4.5-1.8c1.8,0,3.2,0.5,4.2,1.6c1,1,1.5,2.5,1.5,4.3v1.5h-9c0,1.3,0.4,2.2,1.1,2.9s1.6,1,2.8,1
						c0.8,0,1.5-0.1,2.2-0.2s1.4-0.4,2.2-0.7v2.2c-0.7,0.3-1.4,0.5-2.1,0.7C134.9,33.7,134.1,33.8,133.1,33.8z M132.6,22.4
						c-0.9,0-1.6,0.3-2.2,0.8c-0.5,0.6-0.9,1.4-1,2.4h6.1c0-1.1-0.3-1.9-0.8-2.4C134.2,22.7,133.5,22.4,132.6,22.4z"/>
				</g>
			</g>
		</g>
		<line class="st9" x1="149.6" y1="15" x2="149.6" y2="35"/>
		<g>
			<g>
				<g>
					<g>
						<g>
							<g>
								<path class="st7" d="M169,25.1c0,1.7-0.5,2.9-1.4,3.8c-0.9,0.9-2.3,1.3-4,1.3h-2.5v-10h2.8c1.7,0,2.9,0.4,3.8,1.3
									C168.6,22.3,169,23.5,169,25.1z M168.2,25.1c0-1.4-0.4-2.5-1.1-3.2c-0.8-0.7-1.9-1.1-3.3-1.1h-1.9v8.8h1.7
									C166.6,29.6,168.2,28.1,168.2,25.1z"/>
								<path class="st7" d="M176,30.2l-0.2-1.2h-0.1c-0.4,0.5-0.8,0.8-1.2,1s-0.9,0.3-1.5,0.3c-0.8,0-1.3-0.2-1.8-0.6
									c-0.4-0.4-0.6-0.9-0.6-1.6c0-0.7,0.3-1.3,0.9-1.7c0.6-0.4,1.5-0.6,2.7-0.6l1.5,0v-0.5c0-0.7-0.1-1.2-0.4-1.6
									c-0.3-0.4-0.8-0.5-1.4-0.5c-0.7,0-1.5,0.2-2.2,0.6l-0.3-0.6c0.8-0.4,1.7-0.6,2.5-0.6c0.8,0,1.5,0.2,1.9,0.6
									c0.4,0.4,0.6,1.1,0.6,2v4.9H176z M173.2,29.7c0.8,0,1.5-0.2,2-0.7c0.5-0.5,0.7-1.1,0.7-1.9v-0.7l-1.4,0.1
									c-1.1,0.1-1.9,0.2-2.3,0.5c-0.5,0.3-0.7,0.7-0.7,1.3c0,0.5,0.1,0.8,0.4,1.1C172.2,29.6,172.7,29.7,173.2,29.7z"/>
								<path class="st7" d="M181.3,29.7c0.4,0,0.8,0,1.2-0.1v0.5c-0.3,0.1-0.7,0.2-1.2,0.2c-0.7,0-1.2-0.2-1.5-0.5
									c-0.3-0.4-0.5-0.9-0.5-1.7v-4.8h-1.1V23l1.1-0.3l0.4-1.7h0.4v1.8h2.3v0.6H180v4.7c0,0.6,0.1,1,0.3,1.3
									C180.5,29.6,180.8,29.7,181.3,29.7z"/>
								<path class="st7" d="M188.9,30.2l-0.2-1.2h-0.1c-0.4,0.5-0.8,0.8-1.2,1s-0.9,0.3-1.5,0.3c-0.8,0-1.3-0.2-1.8-0.6
									c-0.4-0.4-0.6-0.9-0.6-1.6c0-0.7,0.3-1.3,0.9-1.7c0.6-0.4,1.5-0.6,2.7-0.6l1.5,0v-0.5c0-0.7-0.1-1.2-0.4-1.6
									c-0.3-0.4-0.8-0.5-1.4-0.5c-0.7,0-1.5,0.2-2.2,0.6l-0.3-0.6c0.8-0.4,1.7-0.6,2.5-0.6c0.8,0,1.5,0.2,1.9,0.6
									c0.4,0.4,0.6,1.1,0.6,2v4.9H188.9z M186.1,29.7c0.8,0,1.5-0.2,2-0.7c0.5-0.5,0.7-1.1,0.7-1.9v-0.7l-1.4,0.1
									c-1.1,0.1-1.9,0.2-2.3,0.5c-0.5,0.3-0.7,0.7-0.7,1.3c0,0.5,0.1,0.8,0.4,1.1C185.1,29.6,185.5,29.7,186.1,29.7z"/>
								<path class="st7" d="M202.5,23.1c0,1-0.3,1.7-1,2.2c-0.7,0.5-1.7,0.8-2.9,0.8h-1.6v4.1h-0.7v-10h2.5
									C201.2,20.2,202.5,21.2,202.5,23.1z M196.9,25.5h1.4c1.2,0,2-0.2,2.5-0.6c0.5-0.4,0.8-1,0.8-1.8c0-0.8-0.2-1.3-0.7-1.7
									c-0.5-0.4-1.3-0.6-2.3-0.6h-1.7V25.5z"/>
								<path class="st7" d="M211.1,26.5c0,1.2-0.3,2.2-0.9,2.8c-0.6,0.7-1.5,1-2.5,1c-0.7,0-1.3-0.2-1.8-0.5
									c-0.5-0.3-0.9-0.8-1.2-1.4c-0.3-0.6-0.4-1.3-0.4-2c0-1.2,0.3-2.2,0.9-2.8c0.6-0.7,1.5-1,2.5-1c1.1,0,1.9,0.3,2.5,1
									C210.8,24.4,211.1,25.3,211.1,26.5z M205,26.5c0,1,0.2,1.8,0.7,2.4c0.5,0.6,1.1,0.9,2,0.9s1.5-0.3,2-0.9
									c0.5-0.6,0.7-1.4,0.7-2.4c0-1-0.2-1.8-0.7-2.4c-0.5-0.6-1.1-0.8-2-0.8s-1.5,0.3-2,0.8C205.2,24.7,205,25.5,205,26.5z"/>
								<path class="st7" d="M216.4,22.6c0.3,0,0.7,0,1.1,0.1l-0.1,0.6c-0.3-0.1-0.7-0.1-1-0.1c-0.7,0-1.2,0.3-1.6,0.8
									c-0.4,0.5-0.6,1.2-0.6,2v4.1h-0.7v-7.4h0.6l0.1,1.3h0c0.3-0.5,0.7-0.9,1-1.2C215.5,22.8,215.9,22.6,216.4,22.6z"/>
								<path class="st7" d="M221.2,29.7c0.4,0,0.8,0,1.2-0.1v0.5c-0.3,0.1-0.7,0.2-1.2,0.2c-0.7,0-1.2-0.2-1.5-0.5
									c-0.3-0.4-0.5-0.9-0.5-1.7v-4.8h-1.1V23l1.1-0.3l0.4-1.7h0.4v1.8h2.3v0.6h-2.3v4.7c0,0.6,0.1,1,0.3,1.3
									C220.5,29.6,220.8,29.7,221.2,29.7z"/>
								<path class="st7" d="M228.9,30.2l-0.2-1.2h-0.1c-0.4,0.5-0.8,0.8-1.2,1s-0.9,0.3-1.5,0.3c-0.8,0-1.3-0.2-1.8-0.6
									c-0.4-0.4-0.6-0.9-0.6-1.6c0-0.7,0.3-1.3,0.9-1.7c0.6-0.4,1.5-0.6,2.7-0.6l1.5,0v-0.5c0-0.7-0.1-1.2-0.4-1.6
									c-0.3-0.4-0.8-0.5-1.4-0.5c-0.7,0-1.5,0.2-2.2,0.6l-0.3-0.6c0.8-0.4,1.7-0.6,2.5-0.6c0.8,0,1.5,0.2,1.9,0.6
									c0.4,0.4,0.6,1.1,0.6,2v4.9H228.9z M226.1,29.7c0.8,0,1.5-0.2,2-0.7c0.5-0.5,0.7-1.1,0.7-1.9v-0.7l-1.4,0.1
									c-1.1,0.1-1.9,0.2-2.3,0.5c-0.5,0.3-0.7,0.7-0.7,1.3c0,0.5,0.1,0.8,0.4,1.1C225.1,29.6,225.5,29.7,226.1,29.7z"/>
								<path class="st7" d="M232.8,30.2h-0.7V19.6h0.7V30.2z"/>
							</g>
						</g>
					</g>
				</g>
			</g>
		</g>
	</g>
</g>
</svg>
