<?xml version="1.0" encoding="utf-8"?>
<!-- Generator: Adobe Illustrator 19.1.0, SVG Export Plug-In . SVG Version: 6.00 Build 0)  -->
<svg version="1.1" id="Layer_1" xmlns="http://www.w3.org/2000/svg" xmlns:xlink="http://www.w3.org/1999/xlink" x="0px" y="0px"
	 width="300px" height="100px" viewBox="0 0 300 100" style="enable-background:new 0 0 300 100;" xml:space="preserve">
<style type="text/css">
	.st0{fill:#343E48;}
	.st1{fill:#005DA6;}
</style>
<g>
	<g>
		<path class="st0" d="M117,69.7l-0.7-2h-2.8l-0.7,2h-1.3l2.7-7.3h1.3l2.7,7.3H117z M116,66.6l-0.7-2c0-0.1-0.1-0.3-0.2-0.6
			c-0.1-0.3-0.1-0.5-0.2-0.6c-0.1,0.4-0.2,0.9-0.4,1.3l-0.7,1.9H116z"/>
		<path class="st0" d="M127.6,69.7h-1.2v-3.3h-3.4v3.3h-1.2v-7.3h1.2v3h3.4v-3h1.2V69.7z"/>
		<path class="st0" d="M129.4,62.7c0-0.2,0.1-0.4,0.2-0.5c0.1-0.1,0.3-0.2,0.5-0.2c0.2,0,0.4,0.1,0.5,0.2c0.1,0.1,0.2,0.3,0.2,0.5
			c0,0.2-0.1,0.4-0.2,0.5c-0.1,0.1-0.3,0.2-0.5,0.2c-0.2,0-0.4-0.1-0.5-0.2C129.4,63.1,129.4,62.9,129.4,62.7z M130.6,69.7h-1.2
			v-5.5h1.2V69.7z"/>
		<path class="st0" d="M134.3,68.8c0.3,0,0.6,0,0.9-0.1v0.9c-0.1,0.1-0.3,0.1-0.5,0.1c-0.2,0-0.4,0.1-0.6,0.1
			c-1.1,0-1.7-0.6-1.7-1.8v-3h-0.8v-0.5l0.8-0.4l0.4-1.2h0.7v1.2h1.6v0.9h-1.6V68c0,0.3,0.1,0.5,0.2,0.6S134.1,68.8,134.3,68.8z"/>
		<path class="st0" d="M139.7,69.7l-0.2-0.8h0c-0.3,0.3-0.5,0.6-0.8,0.7s-0.6,0.2-1,0.2c-0.5,0-1-0.1-1.3-0.4
			c-0.3-0.3-0.5-0.7-0.5-1.2c0-0.6,0.2-1,0.6-1.3c0.4-0.3,1.1-0.4,1.9-0.5l1,0V66c0-0.4-0.1-0.6-0.2-0.8c-0.2-0.2-0.4-0.3-0.8-0.3
			c-0.3,0-0.6,0-0.8,0.1c-0.3,0.1-0.5,0.2-0.7,0.3l-0.4-0.8c0.3-0.2,0.6-0.3,1-0.4c0.4-0.1,0.7-0.1,1-0.1c0.7,0,1.2,0.2,1.6,0.5
			c0.4,0.3,0.5,0.8,0.5,1.4v3.7H139.7z M138,68.9c0.4,0,0.8-0.1,1-0.4s0.4-0.6,0.4-1v-0.5l-0.7,0c-0.6,0-1,0.1-1.2,0.3
			c-0.3,0.2-0.4,0.4-0.4,0.8c0,0.2,0.1,0.4,0.2,0.6C137.5,68.8,137.7,68.9,138,68.9z"/>
		<path class="st0" d="M144,69.8c-0.8,0-1.5-0.2-1.9-0.7c-0.4-0.5-0.7-1.2-0.7-2.1c0-0.9,0.2-1.6,0.7-2.1c0.5-0.5,1.1-0.7,2-0.7
			c0.6,0,1.1,0.1,1.6,0.3l-0.4,0.9c-0.5-0.2-0.9-0.3-1.2-0.3c-1,0-1.4,0.6-1.4,1.9c0,0.6,0.1,1.1,0.4,1.4s0.6,0.5,1,0.5
			c0.5,0,1-0.1,1.5-0.4v1c-0.2,0.1-0.4,0.2-0.7,0.3C144.6,69.8,144.3,69.8,144,69.8z"/>
		<path class="st0" d="M151.5,69.7h-1.2v-3.4c0-0.4-0.1-0.7-0.3-1c-0.2-0.2-0.4-0.3-0.8-0.3c-0.5,0-0.9,0.1-1.1,0.4
			c-0.2,0.3-0.3,0.8-0.3,1.5v2.7h-1.2v-7.7h1.2v2c0,0.3,0,0.7-0.1,1h0.1c0.2-0.3,0.4-0.5,0.7-0.6c0.3-0.1,0.6-0.2,1-0.2
			c1.3,0,2,0.7,2,2V69.7z"/>
		<path class="st0" d="M152.8,62.7c0-0.2,0.1-0.4,0.2-0.5c0.1-0.1,0.3-0.2,0.5-0.2c0.2,0,0.4,0.1,0.5,0.2c0.1,0.1,0.2,0.3,0.2,0.5
			c0,0.2-0.1,0.4-0.2,0.5c-0.1,0.1-0.3,0.2-0.5,0.2c-0.2,0-0.4-0.1-0.5-0.2C152.9,63.1,152.8,62.9,152.8,62.7z M154.1,69.7h-1.2
			v-5.5h1.2V69.7z"/>
		<path class="st0" d="M164.4,66c0,1.2-0.3,2.1-1,2.8s-1.6,1-2.9,1h-2v-7.3h2.3c1.2,0,2.1,0.3,2.7,0.9C164.1,64,164.4,64.8,164.4,66
			z M163.2,66c0-1.7-0.8-2.6-2.4-2.6h-1v5.3h0.8C162.3,68.7,163.2,67.8,163.2,66z"/>
		<path class="st0" d="M169.1,69.7l-0.2-0.8h0c-0.3,0.3-0.5,0.6-0.8,0.7s-0.6,0.2-1,0.2c-0.5,0-1-0.1-1.3-0.4
			c-0.3-0.3-0.5-0.7-0.5-1.2c0-0.6,0.2-1,0.6-1.3c0.4-0.3,1.1-0.4,1.9-0.5l1,0V66c0-0.4-0.1-0.6-0.2-0.8c-0.2-0.2-0.4-0.3-0.8-0.3
			c-0.3,0-0.6,0-0.8,0.1c-0.3,0.1-0.5,0.2-0.7,0.3l-0.4-0.8c0.3-0.2,0.6-0.3,1-0.4c0.4-0.1,0.7-0.1,1-0.1c0.7,0,1.2,0.2,1.6,0.5
			c0.4,0.3,0.5,0.8,0.5,1.4v3.7H169.1z M167.4,68.9c0.4,0,0.8-0.1,1-0.4s0.4-0.6,0.4-1v-0.5l-0.7,0c-0.6,0-1,0.1-1.2,0.3
			c-0.3,0.2-0.4,0.4-0.4,0.8c0,0.2,0.1,0.4,0.2,0.6C166.9,68.8,167.1,68.9,167.4,68.9z"/>
		<path class="st0" d="M173.4,68.8c0.3,0,0.6,0,0.9-0.1v0.9c-0.1,0.1-0.3,0.1-0.5,0.1c-0.2,0-0.4,0.1-0.6,0.1
			c-1.1,0-1.7-0.6-1.7-1.8v-3h-0.8v-0.5l0.8-0.4L172,63h0.7v1.2h1.6v0.9h-1.6V68c0,0.3,0.1,0.5,0.2,0.6S173.2,68.8,173.4,68.8z"/>
		<path class="st0" d="M178.8,69.7l-0.2-0.8h0c-0.3,0.3-0.5,0.6-0.8,0.7s-0.6,0.2-1,0.2c-0.5,0-1-0.1-1.3-0.4
			c-0.3-0.3-0.5-0.7-0.5-1.2c0-0.6,0.2-1,0.6-1.3c0.4-0.3,1.1-0.4,1.9-0.5l1,0V66c0-0.4-0.1-0.6-0.2-0.8c-0.2-0.2-0.4-0.3-0.8-0.3
			c-0.3,0-0.6,0-0.8,0.1c-0.3,0.1-0.5,0.2-0.7,0.3l-0.4-0.8c0.3-0.2,0.6-0.3,1-0.4c0.4-0.1,0.7-0.1,1-0.1c0.7,0,1.2,0.2,1.6,0.5
			c0.4,0.3,0.5,0.8,0.5,1.4v3.7H178.8z M177.1,68.9c0.4,0,0.8-0.1,1-0.4s0.4-0.6,0.4-1v-0.5l-0.7,0c-0.6,0-1,0.1-1.2,0.3
			c-0.3,0.2-0.4,0.4-0.4,0.8c0,0.2,0.1,0.4,0.2,0.6C176.6,68.8,176.8,68.9,177.1,68.9z"/>
		<path class="st0" d="M188.1,67.7c0,0.6-0.2,1.2-0.7,1.5s-1.1,0.6-1.9,0.6c-0.8,0-1.5-0.1-2-0.4v-1.1c0.3,0.2,0.7,0.3,1.1,0.4
			c0.4,0.1,0.7,0.1,1,0.1c0.5,0,0.8-0.1,1-0.3s0.3-0.4,0.3-0.7c0-0.3-0.1-0.5-0.3-0.7c-0.2-0.2-0.6-0.4-1.3-0.7
			c-0.7-0.3-1.1-0.6-1.4-0.9c-0.3-0.3-0.4-0.8-0.4-1.2c0-0.6,0.2-1.1,0.6-1.4s1-0.5,1.7-0.5c0.7,0,1.4,0.2,2.1,0.5l-0.4,1
			c-0.6-0.3-1.2-0.4-1.7-0.4c-0.4,0-0.7,0.1-0.9,0.3c-0.2,0.2-0.3,0.4-0.3,0.7c0,0.2,0,0.4,0.1,0.5c0.1,0.1,0.2,0.3,0.4,0.4
			s0.5,0.3,1,0.5c0.5,0.2,0.9,0.4,1.2,0.6s0.4,0.4,0.5,0.7C188,67.1,188.1,67.4,188.1,67.7z"/>
		<path class="st0" d="M188.5,64.2h1.3l1.1,3.1c0.2,0.4,0.3,0.9,0.3,1.3h0c0-0.2,0.1-0.4,0.2-0.7s0.5-1.5,1.3-3.7h1.3l-2.4,6.2
			c-0.4,1.1-1.1,1.7-2.1,1.7c-0.3,0-0.5,0-0.8-0.1v-0.9c0.2,0,0.4,0.1,0.6,0.1c0.6,0,1-0.3,1.2-1l0.2-0.5L188.5,64.2z"/>
		<path class="st0" d="M198.5,68.1c0,0.5-0.2,1-0.6,1.2c-0.4,0.3-1,0.4-1.7,0.4c-0.7,0-1.3-0.1-1.8-0.3v-1c0.6,0.3,1.3,0.4,1.8,0.4
			c0.7,0,1.1-0.2,1.1-0.7c0-0.1,0-0.3-0.1-0.3s-0.2-0.2-0.4-0.3s-0.4-0.2-0.8-0.3c-0.6-0.2-1.1-0.5-1.3-0.7s-0.3-0.6-0.3-1
			c0-0.5,0.2-0.8,0.6-1.1c0.4-0.3,0.9-0.4,1.6-0.4c0.6,0,1.3,0.1,1.8,0.4l-0.4,0.9c-0.6-0.2-1.1-0.4-1.5-0.4c-0.6,0-0.9,0.2-0.9,0.5
			c0,0.2,0.1,0.3,0.2,0.4c0.2,0.1,0.5,0.3,1.1,0.5c0.5,0.2,0.8,0.3,1,0.5c0.2,0.1,0.4,0.3,0.5,0.5C198.5,67.6,198.5,67.9,198.5,68.1
			z"/>
		<path class="st0" d="M201.9,68.8c0.3,0,0.6,0,0.9-0.1v0.9c-0.1,0.1-0.3,0.1-0.5,0.1c-0.2,0-0.4,0.1-0.6,0.1
			c-1.1,0-1.7-0.6-1.7-1.8v-3h-0.8v-0.5l0.8-0.4l0.4-1.2h0.7v1.2h1.6v0.9h-1.6V68c0,0.3,0.1,0.5,0.2,0.6S201.6,68.8,201.9,68.8z"/>
		<path class="st0" d="M206.2,69.8c-0.9,0-1.5-0.3-2-0.7c-0.5-0.5-0.7-1.2-0.7-2.1c0-0.9,0.2-1.6,0.7-2.1s1.1-0.8,1.8-0.8
			c0.7,0,1.3,0.2,1.7,0.7c0.4,0.4,0.6,1,0.6,1.8v0.6h-3.7c0,0.5,0.2,0.9,0.4,1.2c0.3,0.3,0.7,0.4,1.2,0.4c0.3,0,0.6,0,0.9-0.1
			c0.3-0.1,0.6-0.2,0.9-0.3v1c-0.3,0.1-0.6,0.2-0.9,0.3C206.9,69.8,206.6,69.8,206.2,69.8z M206,65c-0.4,0-0.7,0.1-0.9,0.4
			s-0.4,0.6-0.4,1h2.5c0-0.5-0.1-0.8-0.3-1C206.7,65.1,206.4,65,206,65z"/>
		<path class="st0" d="M214.1,69.7H213v-3.4c0-0.4-0.1-0.7-0.2-0.9c-0.2-0.2-0.4-0.3-0.7-0.3c-0.5,0-0.8,0.1-1,0.4s-0.3,0.8-0.3,1.5
			v2.7h-1.2v-5.5h0.9l0.2,0.7h0.1c0.2-0.3,0.4-0.5,0.7-0.6c0.3-0.1,0.6-0.2,1-0.2c0.8,0,1.4,0.3,1.7,0.9h0.1
			c0.2-0.3,0.4-0.5,0.7-0.6s0.6-0.2,1-0.2c0.7,0,1.1,0.2,1.4,0.5c0.3,0.3,0.5,0.8,0.5,1.5v3.6h-1.2v-3.4c0-0.4-0.1-0.7-0.2-0.9
			s-0.4-0.3-0.7-0.3c-0.5,0-0.8,0.1-1,0.4c-0.2,0.3-0.3,0.7-0.3,1.3V69.7z"/>
		<path class="st0" d="M222.7,68.1c0,0.5-0.2,1-0.6,1.2c-0.4,0.3-1,0.4-1.7,0.4c-0.7,0-1.3-0.1-1.8-0.3v-1c0.6,0.3,1.3,0.4,1.8,0.4
			c0.7,0,1.1-0.2,1.1-0.7c0-0.1,0-0.3-0.1-0.3s-0.2-0.2-0.4-0.3s-0.4-0.2-0.8-0.3c-0.6-0.2-1.1-0.5-1.3-0.7s-0.3-0.6-0.3-1
			c0-0.5,0.2-0.8,0.6-1.1c0.4-0.3,0.9-0.4,1.6-0.4c0.6,0,1.3,0.1,1.8,0.4l-0.4,0.9c-0.6-0.2-1.1-0.4-1.5-0.4c-0.6,0-0.9,0.2-0.9,0.5
			c0,0.2,0.1,0.3,0.2,0.4c0.2,0.1,0.5,0.3,1.1,0.5c0.5,0.2,0.8,0.3,1,0.5c0.2,0.1,0.4,0.3,0.5,0.5C222.7,67.6,222.7,67.9,222.7,68.1
			z"/>
		<path class="st0" d="M229.7,63.3c-0.7,0-1.2,0.2-1.6,0.7c-0.4,0.5-0.6,1.2-0.6,2c0,0.9,0.2,1.6,0.6,2c0.4,0.5,0.9,0.7,1.6,0.7
			c0.3,0,0.6,0,0.9-0.1c0.3-0.1,0.6-0.1,0.9-0.2v1c-0.6,0.2-1.2,0.3-1.9,0.3c-1.1,0-1.9-0.3-2.5-1c-0.6-0.6-0.9-1.6-0.9-2.8
			c0-0.8,0.1-1.4,0.4-2c0.3-0.6,0.7-1,1.2-1.3c0.5-0.3,1.1-0.5,1.8-0.5c0.7,0,1.4,0.2,2.1,0.5l-0.4,1c-0.2-0.1-0.5-0.2-0.8-0.3
			S230,63.3,229.7,63.3z"/>
		<path class="st0" d="M237.4,66.9c0,0.9-0.2,1.6-0.7,2.1c-0.5,0.5-1.1,0.8-1.9,0.8c-0.5,0-1-0.1-1.4-0.3c-0.4-0.2-0.7-0.6-0.9-1
			s-0.3-0.9-0.3-1.5c0-0.9,0.2-1.6,0.7-2.1s1.1-0.8,1.9-0.8c0.8,0,1.4,0.3,1.9,0.8C237.2,65.4,237.4,66.1,237.4,66.9z M233.4,66.9
			c0,1.3,0.5,1.9,1.4,1.9c0.9,0,1.4-0.6,1.4-1.9c0-1.3-0.5-1.9-1.4-1.9c-0.5,0-0.8,0.2-1.1,0.5C233.5,65.8,233.4,66.3,233.4,66.9z"
			/>
		<path class="st0" d="M243,69.7h-1.2v-3.4c0-0.4-0.1-0.7-0.2-0.9c-0.2-0.2-0.4-0.3-0.7-0.3c-0.5,0-0.8,0.1-1,0.4s-0.3,0.8-0.3,1.5
			v2.7h-1.2v-5.5h0.9l0.2,0.7h0.1c0.2-0.3,0.4-0.5,0.7-0.6c0.3-0.1,0.6-0.2,1-0.2c0.8,0,1.4,0.3,1.7,0.9h0.1
			c0.2-0.3,0.4-0.5,0.7-0.6s0.6-0.2,1-0.2c0.7,0,1.1,0.2,1.4,0.5c0.3,0.3,0.5,0.8,0.5,1.5v3.6h-1.2v-3.4c0-0.4-0.1-0.7-0.2-0.9
			s-0.4-0.3-0.7-0.3c-0.5,0-0.8,0.1-1,0.4c-0.2,0.3-0.3,0.7-0.3,1.3V69.7z"/>
		<path class="st0" d="M250.6,69.8c-0.7,0-1.2-0.3-1.6-0.8h-0.1c0,0.5,0.1,0.7,0.1,0.8v2.3h-1.2v-8h0.9c0,0.1,0.1,0.3,0.2,0.7h0.1
			c0.4-0.6,0.9-0.8,1.6-0.8c0.7,0,1.2,0.2,1.6,0.7c0.4,0.5,0.6,1.2,0.6,2.1s-0.2,1.6-0.6,2.1C251.8,69.5,251.3,69.8,250.6,69.8z
			 M250.3,65c-0.5,0-0.8,0.1-1,0.4c-0.2,0.3-0.3,0.7-0.3,1.3v0.2c0,0.7,0.1,1.2,0.3,1.5c0.2,0.3,0.6,0.5,1,0.5
			c0.4,0,0.7-0.2,0.9-0.5s0.3-0.8,0.3-1.4c0-0.6-0.1-1.1-0.3-1.4C251.1,65.2,250.8,65,250.3,65z"/>
		<path class="st0" d="M257.2,69.7l-0.2-0.8h0c-0.3,0.3-0.5,0.6-0.8,0.7s-0.6,0.2-1,0.2c-0.5,0-1-0.1-1.3-0.4
			c-0.3-0.3-0.5-0.7-0.5-1.2c0-0.6,0.2-1,0.6-1.3c0.4-0.3,1.1-0.4,1.9-0.5l1,0V66c0-0.4-0.1-0.6-0.2-0.8c-0.2-0.2-0.4-0.3-0.8-0.3
			c-0.3,0-0.6,0-0.8,0.1c-0.3,0.1-0.5,0.2-0.7,0.3l-0.4-0.8c0.3-0.2,0.6-0.3,1-0.4c0.4-0.1,0.7-0.1,1-0.1c0.7,0,1.2,0.2,1.6,0.5
			c0.4,0.3,0.5,0.8,0.5,1.4v3.7H257.2z M255.5,68.9c0.4,0,0.8-0.1,1-0.4s0.4-0.6,0.4-1v-0.5l-0.7,0c-0.6,0-1,0.1-1.2,0.3
			c-0.3,0.2-0.4,0.4-0.4,0.8c0,0.2,0.1,0.4,0.2,0.6C255,68.8,255.2,68.9,255.5,68.9z"/>
		<path class="st0" d="M264.1,69.7h-1.2v-3.4c0-0.4-0.1-0.7-0.3-1c-0.2-0.2-0.4-0.3-0.8-0.3c-0.5,0-0.9,0.1-1.1,0.4
			c-0.2,0.3-0.3,0.8-0.3,1.5v2.7h-1.2v-5.5h0.9l0.2,0.7h0.1c0.2-0.3,0.4-0.5,0.7-0.6c0.3-0.1,0.6-0.2,1-0.2c1.3,0,2,0.7,2,2V69.7z"
			/>
		<path class="st0" d="M264.9,64.2h1.3l1.1,3.1c0.2,0.4,0.3,0.9,0.3,1.3h0c0-0.2,0.1-0.4,0.2-0.7s0.5-1.5,1.3-3.7h1.3l-2.4,6.2
			c-0.4,1.1-1.1,1.7-2.1,1.7c-0.3,0-0.5,0-0.8-0.1v-0.9c0.2,0,0.4,0.1,0.6,0.1c0.6,0,1-0.3,1.2-1l0.2-0.5L264.9,64.2z"/>
	</g>
	<g>
		<path class="st0" d="M245.4,40c1.3,0,2.4,1.1,2.4,2.4c0,1.4-1.1,2.4-2.4,2.4c-1.3,0-2.4-1.1-2.4-2.4C243,41,244,40,245.4,40
			L245.4,40z M245.4,40.3c-1.1,0-1.9,0.9-1.9,2.1c0,1.2,0.9,2.1,2,2.1c1.1,0,1.9-0.9,1.9-2.1C247.3,41.3,246.5,40.3,245.4,40.3
			L245.4,40.3z M244.9,43.8h-0.4v-2.7c0.2,0,0.4-0.1,0.8-0.1c0.4,0,0.7,0.1,0.8,0.2c0.2,0.1,0.2,0.3,0.2,0.6c0,0.4-0.2,0.6-0.5,0.7
			v0c0.2,0,0.4,0.3,0.5,0.7c0.1,0.4,0.1,0.6,0.2,0.7H246c-0.1-0.1-0.1-0.3-0.2-0.7c-0.1-0.3-0.2-0.5-0.6-0.5h-0.3V43.8z M244.9,42.3
			h0.3c0.4,0,0.7-0.1,0.7-0.5c0-0.2-0.2-0.5-0.7-0.5c-0.1,0-0.2,0-0.3,0V42.3z"/>
	</g>
	<path class="st0" d="M109.4,57.9c-2.8,0-5-1.4-6.4-3.6v15.4h-4.5V38.8h4.5v3.1c1.3-2.2,3.5-3.7,6.3-3.7c5.6,0,9.1,4.7,9.1,9.8
		C118.4,53.2,114.9,57.9,109.4,57.9z M108.5,42.1c-3.2,0-5.4,2.7-5.4,5.9c0,3.3,2.1,6.1,5.4,6.1c3.2,0,5.4-2.7,5.4-6
		C113.9,44.7,111.7,42.1,108.5,42.1z"/>
	<path class="st0" d="M130.7,38.2c6.2,0,9.3,4.7,9.3,9.9c0,0.3,0,0.8-0.1,1.1h-14.3c0,3.3,2.7,5.4,6,5.4c2.3,0,4.2-1,5.8-2.3
		l2.3,2.4c-1.8,1.6-4.2,3.3-8.6,3.3c-6.6,0-10-4.7-10-9.9C121,42.9,124.5,38.2,130.7,38.2z M125.6,46.5h10.2
		c-0.2-2.7-2.3-5.1-5.1-5.1C127.9,41.4,125.8,43.8,125.6,46.5z"/>
	<path class="st0" d="M147.7,57.2h-4.5V38.8h4.5v2.5c0.9-1.7,3-3.1,5.5-3.1c5.5,0,7.7,3.5,7.7,9v10h-4.4v-10c0-3.7-1.7-5.3-4.3-5.3
		c-2.4,0-4.3,1.6-4.4,5.2V57.2z"/>
	<path class="st0" d="M166.2,46.2v-3.7h-2.6v-3.7h2.6v-6.2h4.5v6.2h3.9v3.7h-3.9V46c0,5.9,0.3,7.8,2.4,7.8c0.4,0,0.9-0.1,1.3-0.2
		l0.5,3.4c-1.3,0.4-2.3,0.7-3.1,0.7C166.2,57.7,166.2,53.8,166.2,46.2z"/>
	<path class="st0" d="M186.4,38.2c2.8,0,5,1.5,6.4,3.7v-3.1h4.4v18.4h-4.4v-2.9c-1.3,2.2-3.5,3.7-6.3,3.7c-5.6,0-9.1-4.7-9.1-9.8
		C177.3,42.9,180.9,38.2,186.4,38.2z M187.3,54c3.2,0,5.4-2.8,5.4-6c0-3.2-2.2-6-5.4-6c-3.2,0-5.4,2.8-5.4,6
		C181.8,51.4,184.1,54,187.3,54z"/>
	<path class="st0" d="M205.5,57.2h-4.5V22.3h4.5v18.9c1-1.7,3-3.1,5.5-3.1c5.5,0,7.8,3.5,7.8,9v10h-4.5v-10c0-3.7-1.7-5.3-4.3-5.3
		c-2.4,0-4.4,1.6-4.4,5.2V57.2z"/>
	<path class="st0" d="M221.5,47.9c0-5.2,3.4-9.8,9.9-9.8c6.6,0,9.9,4.6,9.9,9.8c0,5.2-3.4,9.8-9.9,9.8
		C224.9,57.8,221.5,53.1,221.5,47.9z M236.9,47.9c0-3.9-2.4-6.5-5.5-6.5c-3,0-5.4,2.6-5.4,6.5c0,4,2.3,6.6,5.4,6.6
		C234.5,54.6,236.9,52,236.9,47.9z"/>
	<g>
		<g>
			<path class="st1" d="M57.9,36.9c-2.1,0-4.2,0.4-6.3,1.1c-4.9,2-8.6,5.8-10.4,10.7c-2,5.3-1.6,11.4,1,16.8
				c4.1,7.6,11.7,12.1,20.5,12.1c4.2,0,8.5-1.1,12.4-3.2c6.5-3.9,11-10.1,12.5-17.4c1.6-7.7-0.1-16-4.9-22.6
				C76.9,26.7,68,22.3,58.1,22.3c-11,0-21,5.5-26.8,14.7c-0.6,0.9-1.3,2.1-1.6,3.2c-0.1,0.2-0.2,0.7,0,1c0.2,0.2,0.6,0.3,0.7,0.3h0
				c0.5,0,1-0.5,1.6-1.5c3.4-4.8,7.3-8.3,11.8-10.7c4-2.1,8.6-3.1,13.1-3.1c10.7,0,19.9,5.8,24.1,15.2c2.4,5.9,2.4,12.6-0.1,18.2
				c-2.3,5.2-6.4,9.1-11.7,11c-2,0.7-4,1-6.1,1c-8,0-14.5-4.9-16.2-12.1c-0.8-3.9,0.2-8.2,2.5-11.1c1.4-1.7,3.9-3.8,7.8-3.9
				c2.5,0,5,1.2,6.4,3c1.1,1.3,1.4,2.9,1.1,4.5c-0.3,1.2-1.6,2.7-2.7,2.7c-0.3,0-0.6-0.1-0.9-0.3c-0.2-0.2-0.3-0.5-0.3-0.9
				c-0.1-0.7-0.2-1.7-1.6-2.2c-0.3-0.1-0.6-0.1-0.9-0.1c-2,0-3.4,1.9-3.8,3.8c-0.2,1.8,0.3,3.6,1.5,5c1.5,1.7,4,2.8,6.6,2.8
				c0.2,0,0.4,0,0.7,0c3.1-0.4,5.8-2,7.5-4.6c2-3,2.6-7.1,1.6-10.9C70.6,41,64.8,36.9,57.9,36.9z"/>
		</g>
	</g>
</g>
</svg>
